<?xml version="1.0" encoding="UTF-8" standalone="no"?>
<!-- Created with Inkscape (http://www.inkscape.org/) -->

<svg
   width="128"
   height="128"
   viewBox="0 0 33.866666 33.866667"
   version="1.1"
   id="svg1"
   inkscape:version="1.4.4 (dcaf3e7d9e, 2026-05-05)"
   sodipodi:docname="sv-options-menu-icon.svg"
   xmlns:inkscape="http://www.inkscape.org/namespaces/inkscape"
   xmlns:sodipodi="http://sodipodi.sourceforge.net/DTD/sodipodi-0.dtd"
   xmlns="http://www.w3.org/2000/svg"
   xmlns:svg="http://www.w3.org/2000/svg">
  <sodipodi:namedview
     id="namedview1"
     pagecolor="#000000"
     bordercolor="#000000"
     borderopacity="0.25"
     inkscape:showpageshadow="2"
     inkscape:pageopacity="0.0"
     inkscape:pagecheckerboard="true"
     inkscape:deskcolor="#d1d1d1"
     inkscape:document-units="mm"
     showgrid="true"
     inkscape:zoom="4"
     inkscape:cx="3.625"
     inkscape:cy="70.375"
     inkscape:window-width="2194"
     inkscape:window-height="1162"
     inkscape:window-x="0"
     inkscape:window-y="0"
     inkscape:window-maximized="1"
     inkscape:current-layer="svg1">
    <inkscape:grid
       id="grid1"
       units="px"
       originx="0"
       originy="0"
       spacingx="4.2333333"
       spacingy="4.2333333"
       empcolor="#0099e5"
       empopacity="0.30196078"
       color="#0099e5"
       opacity="0.14901961"
       empspacing="4"
       enabled="true"
       visible="true" />
  </sodipodi:namedview>
  <defs
     id="defs1">
    <inkscape:path-effect
       effect="powermask"
       id="path-effect3"
       is_visible="true"
       lpeversion="1"
       uri="#mask-powermask-path-effect2"
       invert="false"
       hide_mask="false"
       background="true"
       background_color="#ffffffff" />
    <inkscape:path-effect
       effect="powermask"
       id="path-effect2"
       is_visible="true"
       lpeversion="1"
       uri="#mask-powermask-path-effect2"
       invert="false"
       hide_mask="false"
       background="true"
       background_color="#ffffffff" />
    <inkscape:path-effect
       effect="powermask"
       id="path-effect11"
       is_visible="true"
       lpeversion="1"
       uri="#mask-powermask-path-effect11"
       invert="false"
       hide_mask="false"
       background="true"
       background_color="#ffffffff" />
    <mask
       maskUnits="userSpaceOnUse"
       id="mask-powermask-path-effect3">
      <path
         id="path2"
         mask="none"
         style="fill:#000000;stroke-width:0.264583"
         d="M 12.698966,4.9883261 4.9883261,12.698966 26.155509,33.866151 4.9883261,55.033333 12.698966,62.743974 33.866151,41.576789 55.033333,62.743974 62.743974,55.033333 41.576789,33.866151 62.743974,12.698966 55.033333,4.9883261 33.866151,26.155509 Z" />
    </mask>
    <mask
       maskUnits="userSpaceOnUse"
       id="mask-powermask-path-effect2">
      <path
         id="path3"
         mask="none"
         style="fill:#000000;stroke-width:0.264583"
         d="M 12.698966,4.9883261 4.9883261,12.698966 26.155509,33.866151 4.9883261,55.033333 12.698966,62.743974 33.866151,41.576789 55.033333,62.743974 62.743974,55.033333 41.576789,33.866151 62.743974,12.698966 55.033333,4.9883261 33.866151,26.155509 Z" />
    </mask>
  </defs>
  <rect
     style="fill:#181a1b;stroke-width:0.264583;fill-opacity:1"
     id="rect1"
     width="33.866665"
     height="33.866665"
     x="0"
     y="0" />
  <path
     id="path1"
     style="fill:#6f4fff;stroke-width:7.94287"
     d="m 14.901875,4.2333333 -0.43628,2.4021783 A 10.589688,10.591305 0 0 0 11.404512,7.9038308 L 9.3963227,6.5126877 6.5188027,9.3906478 7.9090874,11.398497 a 10.589688,10.591305 0 0 0 -1.2687722,3.061549 l -2.4031043,0.436347 v 4.070645 l 2.4018117,0.435703 a 10.589688,10.591305 0 0 0 1.267479,3.063488 l -1.3902842,2.007202 2.8775206,2.877961 2.005603,-1.389204 a 10.589688,10.591305 0 0 0 3.063668,1.270257 l 0.435635,2.400886 h 4.069378 l 0.435635,-2.398946 a 10.589688,10.591305 0 0 0 3.066252,-1.268965 l 2.004311,1.388557 2.877521,-2.878606 -1.3877,-2.003323 a 10.589688,10.591305 0 0 0 1.270712,-3.066075 l 2.398579,-0.435702 v -4.070646 l -2.398579,-0.435701 a 10.589688,10.591305 0 0 0 -1.26942,-3.065427 l 1.388993,-2.0052635 -2.878167,-2.87796 -2.004958,1.3892038 A 10.589688,10.591305 0 0 0 19.408181,6.6355116 L 18.971899,4.2333333 Z m 2.035335,6.2071357 a 6.4929395,6.4939304 0 0 1 6.493166,6.494155 6.4929395,6.4939304 0 0 1 -6.493166,6.494157 6.4929395,6.4939304 0 0 1 -6.493164,-6.494157 6.4929395,6.4939304 0 0 1 6.493164,-6.494155 z" />
</svg>
