<?xml version="1.0" encoding="UTF-8" standalone="no"?>
<!-- Created with Inkscape (http://www.inkscape.org/) -->

<svg
   width="256"
   height="256"
   viewBox="0 0 67.733332 67.733333"
   version="1.1"
   id="svg1"
   inkscape:version="1.4.3 (0d15f75042, 2025-12-25)"
   sodipodi:docname="trash-can-handle-lines.svg"
   xmlns:inkscape="http://www.inkscape.org/namespaces/inkscape"
   xmlns:sodipodi="http://sodipodi.sourceforge.net/DTD/sodipodi-0.dtd"
   xmlns="http://www.w3.org/2000/svg"
   xmlns:svg="http://www.w3.org/2000/svg">
  <sodipodi:namedview
     id="namedview1"
     pagecolor="#000000"
     bordercolor="#000000"
     borderopacity="0.25"
     inkscape:showpageshadow="2"
     inkscape:pageopacity="0.0"
     inkscape:pagecheckerboard="true"
     inkscape:deskcolor="#d1d1d1"
     inkscape:document-units="mm"
     showgrid="true"
     inkscape:zoom="1.6979659"
     inkscape:cx="85.690767"
     inkscape:cy="107.48155"
     inkscape:window-width="2194"
     inkscape:window-height="1162"
     inkscape:window-x="0"
     inkscape:window-y="0"
     inkscape:window-maximized="1"
     inkscape:current-layer="svg1">
    <inkscape:grid
       id="grid1"
       units="px"
       originx="0"
       originy="0"
       spacingx="2.1166666"
       spacingy="2.1166666"
       empcolor="#0099e5"
       empopacity="0.30196078"
       color="#0099e5"
       opacity="0.14901961"
       empspacing="4"
       enabled="true"
       visible="true" />
  </sodipodi:namedview>
  <defs
     id="defs1">
    <inkscape:path-effect
       effect="fillet_chamfer"
       id="path-effect7"
       is_visible="true"
       lpeversion="1"
       nodesatellites_param="F,0,0,1,0,2.1166666,0,1 @ F,0,0,1,0,2.1166666,0,1 @ F,0,0,1,0,2.1166666,0,1 @ F,0,0,1,0,2.1166666,0,1"
       radius="8"
       unit="px"
       method="auto"
       mode="F"
       chamfer_steps="1"
       flexible="false"
       use_knot_distance="true"
       apply_no_radius="true"
       apply_with_radius="true"
       only_selected="false"
       hide_knots="false" />
    <inkscape:path-effect
       effect="fillet_chamfer"
       id="path-effect6"
       is_visible="true"
       lpeversion="1"
       nodesatellites_param="F,0,0,1,0,4.2333333,0,1 @ F,0,0,1,0,4.2333333,0,1 @ F,0,0,1,0,4.2333333,0,1 @ F,0,0,1,0,4.2333333,0,1"
       radius="16"
       unit="px"
       method="auto"
       mode="F"
       chamfer_steps="1"
       flexible="false"
       use_knot_distance="true"
       apply_no_radius="true"
       apply_with_radius="true"
       only_selected="false"
       hide_knots="false" />
    <inkscape:path-effect
       effect="fillet_chamfer"
       id="path-effect5"
       is_visible="true"
       lpeversion="1"
       nodesatellites_param="F,0,0,1,0,4.2333333,0,1 @ F,0,0,1,0,4.2333333,0,1 @ F,0,0,1,0,4.2333333,0,1 @ F,0,0,1,0,4.2333333,0,1"
       radius="16"
       unit="px"
       method="auto"
       mode="F"
       chamfer_steps="1"
       flexible="false"
       use_knot_distance="true"
       apply_no_radius="true"
       apply_with_radius="true"
       only_selected="false"
       hide_knots="false" />
    <inkscape:path-effect
       effect="fillet_chamfer"
       id="path-effect4"
       is_visible="true"
       lpeversion="1"
       nodesatellites_param="F,0,0,1,0,4.2333333,0,1 @ F,0,0,1,0,4.2333333,0,1 @ F,0,0,1,0,4.2333333,0,1 @ F,0,0,1,0,4.2333333,0,1"
       radius="16"
       unit="px"
       method="auto"
       mode="F"
       chamfer_steps="1"
       flexible="false"
       use_knot_distance="true"
       apply_no_radius="true"
       apply_with_radius="true"
       only_selected="false"
       hide_knots="false" />
    <inkscape:path-effect
       effect="powermask"
       id="path-effect3"
       is_visible="true"
       lpeversion="1"
       uri="#mask-powermask-path-effect2"
       invert="false"
       hide_mask="false"
       background="true"
       background_color="#ffffffff" />
    <inkscape:path-effect
       effect="powermask"
       id="path-effect2"
       is_visible="true"
       lpeversion="1"
       uri="#mask-powermask-path-effect2"
       invert="false"
       hide_mask="false"
       background="true"
       background_color="#ffffffff" />
    <inkscape:path-effect
       effect="powermask"
       id="path-effect11"
       is_visible="true"
       lpeversion="1"
       uri="#mask-powermask-path-effect11"
       invert="false"
       hide_mask="false"
       background="true"
       background_color="#ffffffff" />
    <mask
       maskUnits="userSpaceOnUse"
       id="mask-powermask-path-effect3">
      <path
         id="path2"
         mask="none"
         style="fill:#000000;stroke-width:0.264583"
         d="M 12.698966,4.9883261 4.9883261,12.698966 26.155509,33.866151 4.9883261,55.033333 12.698966,62.743974 33.866151,41.576789 55.033333,62.743974 62.743974,55.033333 41.576789,33.866151 62.743974,12.698966 55.033333,4.9883261 33.866151,26.155509 Z" />
    </mask>
    <mask
       maskUnits="userSpaceOnUse"
       id="mask-powermask-path-effect2">
      <path
         id="path3"
         mask="none"
         style="fill:#000000;stroke-width:0.264583"
         d="M 12.698966,4.9883261 4.9883261,12.698966 26.155509,33.866151 4.9883261,55.033333 12.698966,62.743974 33.866151,41.576789 55.033333,62.743974 62.743974,55.033333 41.576789,33.866151 62.743974,12.698966 55.033333,4.9883261 33.866151,26.155509 Z" />
    </mask>
    <inkscape:path-effect
       effect="fillet_chamfer"
       id="path-effect7-7"
       is_visible="true"
       lpeversion="1"
       nodesatellites_param="F,0,0,1,0,2.1166666,0,1 @ F,0,0,1,0,2.1166666,0,1 @ F,0,0,1,0,2.1166666,0,1 @ F,0,0,1,0,2.1166666,0,1"
       radius="8"
       unit="px"
       method="auto"
       mode="F"
       chamfer_steps="1"
       flexible="false"
       use_knot_distance="true"
       apply_no_radius="true"
       apply_with_radius="true"
       only_selected="false"
       hide_knots="false" />
    <inkscape:path-effect
       effect="fillet_chamfer"
       id="path-effect7-7-2"
       is_visible="true"
       lpeversion="1"
       nodesatellites_param="F,0,0,1,0,2.1166666,0,1 @ F,0,0,1,0,2.1166666,0,1 @ F,0,0,1,0,2.1166666,0,1 @ F,0,0,1,0,2.1166666,0,1"
       radius="8"
       unit="px"
       method="auto"
       mode="F"
       chamfer_steps="1"
       flexible="false"
       use_knot_distance="true"
       apply_no_radius="true"
       apply_with_radius="true"
       only_selected="false"
       hide_knots="false" />
  </defs>
  <path
     id="rect3"
     style="display:inline;fill:#ffffff;stroke-width:0.264583"
     inkscape:label="bin"
     d="M 16.933333 23.283333 L 16.933333 55.033333 C 16.933333 57.371339 18.828661 59.266667 21.166667 59.266667 L 46.566667 59.266667 C 48.904673 59.266667 50.8 57.371339 50.8 55.033333 L 50.8 23.283333 L 16.933333 23.283333 z M 25.4 27.516667 A 2.1166666 2.1166666 0 0 1 27.516667 29.633333 L 27.516667 50.8 A 2.1166666 2.1166666 0 0 1 25.4 52.916667 A 2.1166666 2.1166666 0 0 1 23.283333 50.8 L 23.283333 29.633333 A 2.1166666 2.1166666 0 0 1 25.4 27.516667 z M 33.866667 27.516667 A 2.1166666 2.1166666 0 0 1 35.983333 29.633333 L 35.983333 50.8 A 2.1166666 2.1166666 0 0 1 33.866667 52.916667 A 2.1166666 2.1166666 0 0 1 31.75 50.8 L 31.75 29.633333 A 2.1166666 2.1166666 0 0 1 33.866667 27.516667 z M 42.333333 27.516667 A 2.1166666 2.1166666 0 0 1 44.45 29.633333 L 44.45 50.8 A 2.1166666 2.1166666 0 0 1 42.333333 52.916667 A 2.1166666 2.1166666 0 0 1 40.216667 50.8 L 40.216667 29.633333 A 2.1166666 2.1166666 0 0 1 42.333333 27.516667 z " />
  <path
     id="rect4"
     style="fill:#ffffff;stroke-width:0.264583"
     inkscape:label="lid"
     d="M 27.516667 8.4666667 A 4.2333333 4.2333333 0 0 0 23.283333 12.7 L 14.816667 12.7 A 4.2333333 4.2333333 0 0 0 10.583333 16.933333 L 10.583333 21.166667 L 57.15 21.166667 L 57.15 16.933333 A 4.2333333 4.2333333 0 0 0 52.916667 12.7 L 44.45 12.7 A 4.2333333 4.2333333 0 0 0 40.216667 8.4666667 L 27.516667 8.4666667 z " />
</svg>
